<?xml version="1.0" standalone="no"?>
<!DOCTYPE svg PUBLIC "-//W3C//DTD SVG 1.1//EN" "http://www.w3.org/Graphics/SVG/1.1/DTD/svg11.dtd">
<svg version="1.1" width="1200" height="406" onload="init(evt)" viewBox="0 0 1200 406" xmlns="http://www.w3.org/2000/svg" xmlns:xlink="http://www.w3.org/1999/xlink">
<!-- Flame graph stack visualization. See https://github.com/brendangregg/FlameGraph for latest version, and http://www.brendangregg.com/flamegraphs.html for examples. -->
<!-- NOTES:  -->
<defs>
	<linearGradient id="background" y1="0" y2="1" x1="0" x2="0" >
		<stop stop-color="#eeeeee" offset="5%" />
		<stop stop-color="#eeeeb0" offset="95%" />
	</linearGradient>
</defs>
<style type="text/css">
	text { font-family:Verdana; font-size:12px; fill:rgb(0,0,0); }
	#search, #ignorecase { opacity:0.1; cursor:pointer; }
	#search:hover, #search.show, #ignorecase:hover, #ignorecase.show { opacity:1; }
	#subtitle { text-anchor:middle; font-color:rgb(160,160,160); }
	#title { text-anchor:middle; font-size:17px}
	#unzoom { cursor:pointer; }
	#frames > *:hover { stroke:black; stroke-width:0.5; cursor:pointer; }
	.hide { display:none; }
	.parent { opacity:0.5; }
</style>
<script type="text/ecmascript">
<![CDATA[
	"use strict";
	var details, searchbtn, unzoombtn, matchedtxt, svg, searching, currentSearchTerm, ignorecase, ignorecaseBtn;
	function init(evt) {
		details = document.getElementById("details").firstChild;
		searchbtn = document.getElementById("search");
		ignorecaseBtn = document.getElementById("ignorecase");
		unzoombtn = document.getElementById("unzoom");
		matchedtxt = document.getElementById("matched");
		svg = document.getElementsByTagName("svg")[0];
		searching = 0;
		currentSearchTerm = null;

		// use GET parameters to restore a flamegraphs state.
		var params = get_params();
		if (params.x && params.y)
			zoom(find_group(document.querySelector('[x="' + params.x + '"][y="' + params.y + '"]')));
                if (params.s) search(params.s);
	}

	// event listeners
	window.addEventListener("click", function(e) {
		var target = find_group(e.target);
		if (target) {
			if (target.nodeName == "a") {
				if (e.ctrlKey === false) return;
				e.preventDefault();
			}
			if (target.classList.contains("parent")) unzoom(true);
			zoom(target);
			if (!document.querySelector('.parent')) {
				// we have basically done a clearzoom so clear the url
				var params = get_params();
				if (params.x) delete params.x;
				if (params.y) delete params.y;
				history.replaceState(null, null, parse_params(params));
				unzoombtn.classList.add("hide");
				return;
			}

			// set parameters for zoom state
			var el = target.querySelector("rect");
			if (el && el.attributes && el.attributes.y && el.attributes._orig_x) {
				var params = get_params()
				params.x = el.attributes._orig_x.value;
				params.y = el.attributes.y.value;
				history.replaceState(null, null, parse_params(params));
			}
		}
		else if (e.target.id == "unzoom") clearzoom();
		else if (e.target.id == "search") search_prompt();
		else if (e.target.id == "ignorecase") toggle_ignorecase();
	}, false)

	// mouse-over for info
	// show
	window.addEventListener("mouseover", function(e) {
		var target = find_group(e.target);
		if (target) details.nodeValue = "Function: " + g_to_text(target);
	}, false)

	// clear
	window.addEventListener("mouseout", function(e) {
		var target = find_group(e.target);
		if (target) details.nodeValue = ' ';
	}, false)

	// ctrl-F for search
	// ctrl-I to toggle case-sensitive search
	window.addEventListener("keydown",function (e) {
		if (e.keyCode === 114 || (e.ctrlKey && e.keyCode === 70)) {
			e.preventDefault();
			search_prompt();
		}
		else if (e.ctrlKey && e.keyCode === 73) {
			e.preventDefault();
			toggle_ignorecase();
		}
	}, false)

	// functions
	function get_params() {
		var params = {};
		var paramsarr = window.location.search.substr(1).split('&');
		for (var i = 0; i < paramsarr.length; ++i) {
			var tmp = paramsarr[i].split("=");
			if (!tmp[0] || !tmp[1]) continue;
			params[tmp[0]]  = decodeURIComponent(tmp[1]);
		}
		return params;
	}
	function parse_params(params) {
		var uri = "?";
		for (var key in params) {
			uri += key + '=' + encodeURIComponent(params[key]) + '&';
		}
		if (uri.slice(-1) == "&")
			uri = uri.substring(0, uri.length - 1);
		if (uri == '?')
			uri = window.location.href.split('?')[0];
		return uri;
	}
	function find_child(node, selector) {
		var children = node.querySelectorAll(selector);
		if (children.length) return children[0];
	}
	function find_group(node) {
		var parent = node.parentElement;
		if (!parent) return;
		if (parent.id == "frames") return node;
		return find_group(parent);
	}
	function orig_save(e, attr, val) {
		if (e.attributes["_orig_" + attr] != undefined) return;
		if (e.attributes[attr] == undefined) return;
		if (val == undefined) val = e.attributes[attr].value;
		e.setAttribute("_orig_" + attr, val);
	}
	function orig_load(e, attr) {
		if (e.attributes["_orig_"+attr] == undefined) return;
		e.attributes[attr].value = e.attributes["_orig_" + attr].value;
		e.removeAttribute("_orig_"+attr);
	}
	function g_to_text(e) {
		var text = find_child(e, "title").firstChild.nodeValue;
		return (text)
	}
	function g_to_func(e) {
		var func = g_to_text(e);
		// if there's any manipulation we want to do to the function
		// name before it's searched, do it here before returning.
		return (func);
	}
	function update_text(e) {
		var r = find_child(e, "rect");
		var t = find_child(e, "text");
		var w = parseFloat(r.attributes.width.value) -3;
		var txt = find_child(e, "title").textContent.replace(/\([^(]*\)$/,"");
		t.attributes.x.value = parseFloat(r.attributes.x.value) + 3;

		// Smaller than this size won't fit anything
		if (w < 2 * 12 * 0.59) {
			t.textContent = "";
			return;
		}

		t.textContent = txt;
		var sl = t.getSubStringLength(0, txt.length);
		// check if only whitespace or if we can fit the entire string into width w
		if (/^ *$/.test(txt) || sl < w)
			return;

		// this isn't perfect, but gives a good starting point
		// and avoids calling getSubStringLength too often
		var start = Math.floor((w/sl) * txt.length);
		for (var x = start; x > 0; x = x-2) {
			if (t.getSubStringLength(0, x + 2) <= w) {
				t.textContent = txt.substring(0, x) + "..";
				return;
			}
		}
		t.textContent = "";
	}

	// zoom
	function zoom_reset(e) {
		if (e.attributes != undefined) {
			orig_load(e, "x");
			orig_load(e, "width");
		}
		if (e.childNodes == undefined) return;
		for (var i = 0, c = e.childNodes; i < c.length; i++) {
			zoom_reset(c[i]);
		}
	}
	function zoom_child(e, x, ratio) {
		if (e.attributes != undefined) {
			if (e.attributes.x != undefined) {
				orig_save(e, "x");
				e.attributes.x.value = (parseFloat(e.attributes.x.value) - x - 10) * ratio + 10;
				if (e.tagName == "text")
					e.attributes.x.value = find_child(e.parentNode, "rect[x]").attributes.x.value + 3;
			}
			if (e.attributes.width != undefined) {
				orig_save(e, "width");
				e.attributes.width.value = parseFloat(e.attributes.width.value) * ratio;
			}
		}

		if (e.childNodes == undefined) return;
		for (var i = 0, c = e.childNodes; i < c.length; i++) {
			zoom_child(c[i], x - 10, ratio);
		}
	}
	function zoom_parent(e) {
		if (e.attributes) {
			if (e.attributes.x != undefined) {
				orig_save(e, "x");
				e.attributes.x.value = 10;
			}
			if (e.attributes.width != undefined) {
				orig_save(e, "width");
				e.attributes.width.value = parseInt(svg.width.baseVal.value) - (10 * 2);
			}
		}
		if (e.childNodes == undefined) return;
		for (var i = 0, c = e.childNodes; i < c.length; i++) {
			zoom_parent(c[i]);
		}
	}
	function zoom(node) {
		var attr = find_child(node, "rect").attributes;
		var width = parseFloat(attr.width.value);
		var xmin = parseFloat(attr.x.value);
		var xmax = parseFloat(xmin + width);
		var ymin = parseFloat(attr.y.value);
		var ratio = (svg.width.baseVal.value - 2 * 10) / width;

		// XXX: Workaround for JavaScript float issues (fix me)
		var fudge = 0.0001;

		unzoombtn.classList.remove("hide");

		var el = document.getElementById("frames").children;
		for (var i = 0; i < el.length; i++) {
			var e = el[i];
			var a = find_child(e, "rect").attributes;
			var ex = parseFloat(a.x.value);
			var ew = parseFloat(a.width.value);
			var upstack;
			// Is it an ancestor
			if (0 == 0) {
				upstack = parseFloat(a.y.value) > ymin;
			} else {
				upstack = parseFloat(a.y.value) < ymin;
			}
			if (upstack) {
				// Direct ancestor
				if (ex <= xmin && (ex+ew+fudge) >= xmax) {
					e.classList.add("parent");
					zoom_parent(e);
					update_text(e);
				}
				// not in current path
				else
					e.classList.add("hide");
			}
			// Children maybe
			else {
				// no common path
				if (ex < xmin || ex + fudge >= xmax) {
					e.classList.add("hide");
				}
				else {
					zoom_child(e, xmin, ratio);
					update_text(e);
				}
			}
		}
		search();
	}
	function unzoom(dont_update_text) {
		unzoombtn.classList.add("hide");
		var el = document.getElementById("frames").children;
		for(var i = 0; i < el.length; i++) {
			el[i].classList.remove("parent");
			el[i].classList.remove("hide");
			zoom_reset(el[i]);
			if(!dont_update_text) update_text(el[i]);
		}
		search();
	}
	function clearzoom() {
		unzoom();

		// remove zoom state
		var params = get_params();
		if (params.x) delete params.x;
		if (params.y) delete params.y;
		history.replaceState(null, null, parse_params(params));
	}

	// search
	function toggle_ignorecase() {
		ignorecase = !ignorecase;
		if (ignorecase) {
			ignorecaseBtn.classList.add("show");
		} else {
			ignorecaseBtn.classList.remove("show");
		}
		reset_search();
		search();
	}
	function reset_search() {
		var el = document.querySelectorAll("#frames rect");
		for (var i = 0; i < el.length; i++) {
			orig_load(el[i], "fill")
		}
		var params = get_params();
		delete params.s;
		history.replaceState(null, null, parse_params(params));
	}
	function search_prompt() {
		if (!searching) {
			var term = prompt("Enter a search term (regexp " +
			    "allowed, eg: ^ext4_)"
			    + (ignorecase ? ", ignoring case" : "")
			    + "\nPress Ctrl-i to toggle case sensitivity", "");
			if (term != null) search(term);
		} else {
			reset_search();
			searching = 0;
			currentSearchTerm = null;
			searchbtn.classList.remove("show");
			searchbtn.firstChild.nodeValue = "Search"
			matchedtxt.classList.add("hide");
			matchedtxt.firstChild.nodeValue = ""
		}
	}
	function search(term) {
		if (term) currentSearchTerm = term;
		if (currentSearchTerm === null) return;

		var re = new RegExp(currentSearchTerm, ignorecase ? 'i' : '');
		var el = document.getElementById("frames").children;
		var matches = new Object();
		var maxwidth = 0;
		for (var i = 0; i < el.length; i++) {
			var e = el[i];
			var func = g_to_func(e);
			var rect = find_child(e, "rect");
			if (func == null || rect == null)
				continue;

			// Save max width. Only works as we have a root frame
			var w = parseFloat(rect.attributes.width.value);
			if (w > maxwidth)
				maxwidth = w;

			if (func.match(re)) {
				// highlight
				var x = parseFloat(rect.attributes.x.value);
				orig_save(rect, "fill");
				rect.attributes.fill.value = "rgb(230,0,230)";

				// remember matches
				if (matches[x] == undefined) {
					matches[x] = w;
				} else {
					if (w > matches[x]) {
						// overwrite with parent
						matches[x] = w;
					}
				}
				searching = 1;
			}
		}
		if (!searching)
			return;
		var params = get_params();
		params.s = currentSearchTerm;
		history.replaceState(null, null, parse_params(params));

		searchbtn.classList.add("show");
		searchbtn.firstChild.nodeValue = "Reset Search";

		// calculate percent matched, excluding vertical overlap
		var count = 0;
		var lastx = -1;
		var lastw = 0;
		var keys = Array();
		for (k in matches) {
			if (matches.hasOwnProperty(k))
				keys.push(k);
		}
		// sort the matched frames by their x location
		// ascending, then width descending
		keys.sort(function(a, b){
			return a - b;
		});
		// Step through frames saving only the biggest bottom-up frames
		// thanks to the sort order. This relies on the tree property
		// where children are always smaller than their parents.
		var fudge = 0.0001;	// JavaScript floating point
		for (var k in keys) {
			var x = parseFloat(keys[k]);
			var w = matches[keys[k]];
			if (x >= lastx + lastw - fudge) {
				count += w;
				lastx = x;
				lastw = w;
			}
		}
		// display matched percent
		matchedtxt.classList.remove("hide");
		var pct = 100 * count / maxwidth;
		if (pct != 100) pct = pct.toFixed(1)
		matchedtxt.firstChild.nodeValue = "Matched: " + pct + "%";
	}
]]>
</script>
<rect x="0.0" y="0" width="1200.0" height="406.0" fill="url(#background)"  />
<text id="title" x="600.00" y="24" >Flame Graph</text>
<text id="details" x="10.00" y="389" > </text>
<text id="unzoom" x="10.00" y="24" class="hide">Reset Zoom</text>
<text id="search" x="1090.00" y="24" >Search</text>
<text id="ignorecase" x="1174.00" y="24" >ic</text>
<text id="matched" x="1090.00" y="389" > </text>
<g id="frames">
<g >
<title>all (13,444,444,310 samples, 100%)</title><rect x="10.0" y="357" width="1180.0" height="15.0" fill="rgb(213,39,9)" rx="2" ry="2" />
<text  x="13.00" y="367.5" ></text>
</g>
<g >
<title>_raw_spin_unlock_irq (10,101,010 samples, 0.08%)</title><rect x="11.8" y="69" width="0.9" height="15.0" fill="rgb(215,47,11)" rx="2" ry="2" />
<text  x="14.77" y="79.5" ></text>
</g>
<g >
<title>entry_SYSCALL_64_after_hwframe (30,303,030 samples, 0.23%)</title><rect x="10.0" y="293" width="2.7" height="15.0" fill="rgb(218,63,15)" rx="2" ry="2" />
<text  x="13.00" y="303.5" ></text>
</g>
<g >
<title>__zone_watermark_ok (10,101,010 samples, 0.08%)</title><rect x="1129.7" y="37" width="0.9" height="15.0" fill="rgb(240,162,38)" rx="2" ry="2" />
<text  x="1132.71" y="47.5" ></text>
</g>
<g >
<title>irq_exit_rcu (10,101,010 samples, 0.08%)</title><rect x="1178.5" y="197" width="0.9" height="15.0" fill="rgb(254,227,54)" rx="2" ry="2" />
<text  x="1181.47" y="207.5" ></text>
</g>
<g >
<title>x64_sys_call (30,303,030 samples, 0.23%)</title><rect x="10.0" y="261" width="2.7" height="15.0" fill="rgb(247,194,46)" rx="2" ry="2" />
<text  x="13.00" y="271.5" ></text>
</g>
<g >
<title>common_interrupt (10,101,010 samples, 0.08%)</title><rect x="1178.5" y="213" width="0.9" height="15.0" fill="rgb(215,46,11)" rx="2" ry="2" />
<text  x="1181.47" y="223.5" ></text>
</g>
<g >
<title>__mpn_mul_1 (10,101,010 samples, 0.08%)</title><rect x="17.1" y="293" width="0.9" height="15.0" fill="rgb(246,190,45)" rx="2" ry="2" />
<text  x="20.09" y="303.5" ></text>
</g>
<g >
<title>handle_softirqs (10,101,010 samples, 0.08%)</title><rect x="1049.0" y="165" width="0.9" height="15.0" fill="rgb(238,156,37)" rx="2" ry="2" />
<text  x="1052.04" y="175.5" ></text>
</g>
<g >
<title>__alloc_pages (10,101,010 samples, 0.08%)</title><rect x="1129.7" y="53" width="0.9" height="15.0" fill="rgb(233,129,30)" rx="2" ry="2" />
<text  x="1132.71" y="63.5" ></text>
</g>
<g >
<title>OwnHashMap&lt;int, std::__cxx11::basic_string&lt;char, std::char_traits&lt;char&gt;, std::allocator&lt;char&gt; &gt;, BadHash&gt;::insert (545,454,540 samples, 4.06%)</title><rect x="1052.6" y="245" width="47.9" height="15.0" fill="rgb(252,218,52)" rx="2" ry="2" />
<text  x="1055.58" y="255.5" >OwnH..</text>
</g>
<g >
<title>__do_sys_brk (10,101,010 samples, 0.08%)</title><rect x="12.7" y="229" width="0.8" height="15.0" fill="rgb(217,58,13)" rx="2" ry="2" />
<text  x="15.66" y="239.5" ></text>
</g>
<g >
<title>irq_exit_rcu (10,101,010 samples, 0.08%)</title><rect x="1118.2" y="197" width="0.9" height="15.0" fill="rgb(254,227,54)" rx="2" ry="2" />
<text  x="1121.19" y="207.5" ></text>
</g>
<g >
<title>ext4_file_write_iter (10,101,010 samples, 0.08%)</title><rect x="11.8" y="181" width="0.9" height="15.0" fill="rgb(220,71,17)" rx="2" ry="2" />
<text  x="14.77" y="191.5" ></text>
</g>
<g >
<title>sysvec_apic_timer_interrupt (10,101,010 samples, 0.08%)</title><rect x="1118.2" y="213" width="0.9" height="15.0" fill="rgb(220,69,16)" rx="2" ry="2" />
<text  x="1121.19" y="223.5" ></text>
</g>
<g >
<title>__uselocale (10,101,010 samples, 0.08%)</title><rect x="1187.3" y="261" width="0.9" height="15.0" fill="rgb(254,225,53)" rx="2" ry="2" />
<text  x="1190.34" y="271.5" ></text>
</g>
<g >
<title>handle_softirqs (10,101,010 samples, 0.08%)</title><rect x="643.9" y="181" width="0.9" height="15.0" fill="rgb(238,156,37)" rx="2" ry="2" />
<text  x="646.88" y="191.5" ></text>
</g>
<g >
<title>OwnHashMap&lt;int, std::__cxx11::basic_string&lt;char, std::char_traits&lt;char&gt;, std::allocator&lt;char&gt; &gt;, GoodHash&gt;::rehash (10,101,010 samples, 0.08%)</title><rect x="1129.7" y="229" width="0.9" height="15.0" fill="rgb(230,118,28)" rx="2" ry="2" />
<text  x="1132.71" y="239.5" ></text>
</g>
<g >
<title>common_interrupt (10,101,010 samples, 0.08%)</title><rect x="643.9" y="229" width="0.9" height="15.0" fill="rgb(215,46,11)" rx="2" ry="2" />
<text  x="646.88" y="239.5" ></text>
</g>
<g >
<title>void std::__cxx11::basic_string&lt;char, std::char_traits&lt;char&gt;, std::allocator&lt;char&gt; &gt;::_M_construct&lt;char*&gt; (10,101,010 samples, 0.08%)</title><rect x="1185.6" y="261" width="0.9" height="15.0" fill="rgb(220,70,16)" rx="2" ry="2" />
<text  x="1188.57" y="271.5" ></text>
</g>
<g >
<title>scsi_complete (10,101,010 samples, 0.08%)</title><rect x="1048.2" y="117" width="0.8" height="15.0" fill="rgb(210,23,5)" rx="2" ry="2" />
<text  x="1051.15" y="127.5" ></text>
</g>
<g >
<title>fsnotify (20,202,020 samples, 0.15%)</title><rect x="10.0" y="181" width="1.8" height="15.0" fill="rgb(215,50,12)" rx="2" ry="2" />
<text  x="13.00" y="191.5" ></text>
</g>
<g >
<title>clock_gettime@plt (30,303,030 samples, 0.23%)</title><rect x="610.2" y="261" width="2.7" height="15.0" fill="rgb(229,112,27)" rx="2" ry="2" />
<text  x="613.20" y="271.5" ></text>
</g>
<g >
<title>__irq_exit_rcu (10,101,010 samples, 0.08%)</title><rect x="1178.5" y="181" width="0.9" height="15.0" fill="rgb(227,101,24)" rx="2" ry="2" />
<text  x="1181.47" y="191.5" ></text>
</g>
<g >
<title>inotify_handle_inode_event (20,202,020 samples, 0.15%)</title><rect x="10.0" y="133" width="1.8" height="15.0" fill="rgb(211,31,7)" rx="2" ry="2" />
<text  x="13.00" y="143.5" ></text>
</g>
<g >
<title>do_writev (30,303,030 samples, 0.23%)</title><rect x="10.0" y="229" width="2.7" height="15.0" fill="rgb(239,157,37)" rx="2" ry="2" />
<text  x="13.00" y="239.5" ></text>
</g>
<g >
<title>__vdso_clock_gettime (10,101,010 samples, 0.08%)</title><rect x="30.4" y="261" width="0.9" height="15.0" fill="rgb(254,226,54)" rx="2" ry="2" />
<text  x="33.39" y="271.5" ></text>
</g>
<g >
<title>asm_common_interrupt (20,202,020 samples, 0.15%)</title><rect x="1047.3" y="229" width="1.7" height="15.0" fill="rgb(227,105,25)" rx="2" ry="2" />
<text  x="1050.27" y="239.5" ></text>
</g>
<g >
<title>benchmark::internal::BenchmarkRunner::DoNIterations (13,313,131,180 samples, 99.02%)</title><rect x="18.0" y="309" width="1168.5" height="15.0" fill="rgb(238,153,36)" rx="2" ry="2" />
<text  x="20.98" y="319.5" >benchmark::internal::BenchmarkRunner::DoNIterations</text>
</g>
<g >
<title>handle_softirqs (40,404,040 samples, 0.30%)</title><rect x="606.6" y="165" width="3.6" height="15.0" fill="rgb(238,156,37)" rx="2" ry="2" />
<text  x="609.65" y="175.5" ></text>
</g>
<g >
<title>__wake_up (20,202,020 samples, 0.15%)</title><rect x="10.0" y="101" width="1.8" height="15.0" fill="rgb(254,226,54)" rx="2" ry="2" />
<text  x="13.00" y="111.5" ></text>
</g>
<g >
<title>do_anonymous_page (10,101,010 samples, 0.08%)</title><rect x="1129.7" y="117" width="0.9" height="15.0" fill="rgb(238,155,37)" rx="2" ry="2" />
<text  x="1132.71" y="127.5" ></text>
</g>
<g >
<title>std::chrono::_V2::system_clock::now (363,636,360 samples, 2.70%)</title><rect x="612.9" y="261" width="31.9" height="15.0" fill="rgb(224,91,21)" rx="2" ry="2" />
<text  x="615.85" y="271.5" >st..</text>
</g>
<g >
<title>fsnotify_handle_inode_event.isra.0 (20,202,020 samples, 0.15%)</title><rect x="10.0" y="149" width="1.8" height="15.0" fill="rgb(249,205,49)" rx="2" ry="2" />
<text  x="13.00" y="159.5" ></text>
</g>
<g >
<title>scsi_decide_disposition (10,101,010 samples, 0.08%)</title><rect x="1048.2" y="101" width="0.8" height="15.0" fill="rgb(233,132,31)" rx="2" ry="2" />
<text  x="1051.15" y="111.5" ></text>
</g>
<g >
<title>asm_common_interrupt (40,404,040 samples, 0.30%)</title><rect x="606.6" y="229" width="3.6" height="15.0" fill="rgb(227,105,25)" rx="2" ry="2" />
<text  x="609.65" y="239.5" ></text>
</g>
<g >
<title>irq_exit_rcu (10,101,010 samples, 0.08%)</title><rect x="643.9" y="213" width="0.9" height="15.0" fill="rgb(254,227,54)" rx="2" ry="2" />
<text  x="646.88" y="223.5" ></text>
</g>
<g >
<title>entry_SYSCALL_64_after_hwframe (10,101,010 samples, 0.08%)</title><rect x="12.7" y="293" width="0.8" height="15.0" fill="rgb(218,63,15)" rx="2" ry="2" />
<text  x="15.66" y="303.5" ></text>
</g>
<g >
<title>clock_gettime@@GLIBC_2.17 (6,595,959,530 samples, 49.06%)</title><rect x="31.3" y="261" width="578.9" height="15.0" fill="rgb(250,209,50)" rx="2" ry="2" />
<text  x="34.28" y="271.5" >clock_gettime@@GLIBC_2.17</text>
</g>
<g >
<title>void std::__cxx11::basic_string&lt;char, std::char_traits&lt;char&gt;, std::allocator&lt;char&gt; &gt;::_M_construct&lt;char*&gt; (10,101,010 samples, 0.08%)</title><rect x="1184.7" y="245" width="0.9" height="15.0" fill="rgb(220,70,16)" rx="2" ry="2" />
<text  x="1187.68" y="255.5" ></text>
</g>
<g >
<title>do_syscall_64 (10,101,010 samples, 0.08%)</title><rect x="12.7" y="277" width="0.8" height="15.0" fill="rgb(209,20,4)" rx="2" ry="2" />
<text  x="15.66" y="287.5" ></text>
</g>
<g >
<title>do_user_addr_fault (10,101,010 samples, 0.08%)</title><rect x="1099.6" y="181" width="0.9" height="15.0" fill="rgb(228,108,25)" rx="2" ry="2" />
<text  x="1102.57" y="191.5" ></text>
</g>
<g >
<title>__handle_mm_fault (10,101,010 samples, 0.08%)</title><rect x="1129.7" y="149" width="0.9" height="15.0" fill="rgb(207,9,2)" rx="2" ry="2" />
<text  x="1132.71" y="159.5" ></text>
</g>
<g >
<title>OwnHashMap&lt;int, std::__cxx11::basic_string&lt;char, std::char_traits&lt;char&gt;, std::allocator&lt;char&gt; &gt;, MediumHash&gt;::find (505,050,500 samples, 3.76%)</title><rect x="1139.5" y="245" width="44.3" height="15.0" fill="rgb(243,177,42)" rx="2" ry="2" />
<text  x="1142.47" y="255.5" >OwnH..</text>
</g>
<g >
<title>do_syscall_64 (30,303,030 samples, 0.23%)</title><rect x="10.0" y="277" width="2.7" height="15.0" fill="rgb(209,20,4)" rx="2" ry="2" />
<text  x="13.00" y="287.5" ></text>
</g>
<g >
<title>__GI___writev (30,303,030 samples, 0.23%)</title><rect x="10.0" y="309" width="2.7" height="15.0" fill="rgb(217,56,13)" rx="2" ry="2" />
<text  x="13.00" y="319.5" ></text>
</g>
<g >
<title>irq_exit_rcu (10,101,010 samples, 0.08%)</title><rect x="1049.0" y="197" width="0.9" height="15.0" fill="rgb(254,227,54)" rx="2" ry="2" />
<text  x="1052.04" y="207.5" ></text>
</g>
<g >
<title>void std::__cxx11::basic_string&lt;char, std::char_traits&lt;char&gt;, std::allocator&lt;char&gt; &gt;::_M_construct&lt;char*&gt; (30,303,030 samples, 0.23%)</title><rect x="1049.9" y="229" width="2.7" height="15.0" fill="rgb(220,70,16)" rx="2" ry="2" />
<text  x="1052.92" y="239.5" ></text>
</g>
<g >
<title>__filemap_get_folio (10,101,010 samples, 0.08%)</title><rect x="11.8" y="117" width="0.9" height="15.0" fill="rgb(231,120,28)" rx="2" ry="2" />
<text  x="14.77" y="127.5" ></text>
</g>
<g >
<title>common_interrupt (20,202,020 samples, 0.15%)</title><rect x="1047.3" y="213" width="1.7" height="15.0" fill="rgb(215,46,11)" rx="2" ry="2" />
<text  x="1050.27" y="223.5" ></text>
</g>
<g >
<title>[unknown] (13,434,343,300 samples, 99.92%)</title><rect x="10.0" y="325" width="1179.1" height="15.0" fill="rgb(210,24,5)" rx="2" ry="2" />
<text  x="13.00" y="335.5" >[unknown]</text>
</g>
<g >
<title>fsnotify_insert_event (20,202,020 samples, 0.15%)</title><rect x="10.0" y="117" width="1.8" height="15.0" fill="rgb(241,167,40)" rx="2" ry="2" />
<text  x="13.00" y="127.5" ></text>
</g>
<g >
<title>__irq_exit_rcu (20,202,020 samples, 0.15%)</title><rect x="1047.3" y="181" width="1.7" height="15.0" fill="rgb(227,101,24)" rx="2" ry="2" />
<text  x="1050.27" y="191.5" ></text>
</g>
<g >
<title>vfs_writev (30,303,030 samples, 0.23%)</title><rect x="10.0" y="213" width="2.7" height="15.0" fill="rgb(238,153,36)" rx="2" ry="2" />
<text  x="13.00" y="223.5" ></text>
</g>
<g >
<title>sysvec_apic_timer_interrupt (10,101,010 samples, 0.08%)</title><rect x="1049.0" y="213" width="0.9" height="15.0" fill="rgb(220,69,16)" rx="2" ry="2" />
<text  x="1052.04" y="223.5" ></text>
</g>
<g >
<title>scsi_handle_queue_ramp_up (10,101,010 samples, 0.08%)</title><rect x="1048.2" y="85" width="0.8" height="15.0" fill="rgb(233,131,31)" rx="2" ry="2" />
<text  x="1051.15" y="95.5" ></text>
</g>
<g >
<title>ext4_da_write_begin (10,101,010 samples, 0.08%)</title><rect x="11.8" y="133" width="0.9" height="15.0" fill="rgb(211,32,7)" rx="2" ry="2" />
<text  x="14.77" y="143.5" ></text>
</g>
<g >
<title>__irq_exit_rcu (10,101,010 samples, 0.08%)</title><rect x="643.9" y="197" width="0.9" height="15.0" fill="rgb(227,101,24)" rx="2" ry="2" />
<text  x="646.88" y="207.5" ></text>
</g>
<g >
<title>exc_page_fault (10,101,010 samples, 0.08%)</title><rect x="1099.6" y="197" width="0.9" height="15.0" fill="rgb(212,35,8)" rx="2" ry="2" />
<text  x="1102.57" y="207.5" ></text>
</g>
<g >
<title>asm_common_interrupt (10,101,010 samples, 0.08%)</title><rect x="1178.5" y="229" width="0.9" height="15.0" fill="rgb(227,105,25)" rx="2" ry="2" />
<text  x="1181.47" y="239.5" ></text>
</g>
<g >
<title>__brk (10,101,010 samples, 0.08%)</title><rect x="12.7" y="309" width="0.8" height="15.0" fill="rgb(225,94,22)" rx="2" ry="2" />
<text  x="15.66" y="319.5" ></text>
</g>
<g >
<title>alloc_pages_mpol (10,101,010 samples, 0.08%)</title><rect x="1129.7" y="69" width="0.9" height="15.0" fill="rgb(254,227,54)" rx="2" ry="2" />
<text  x="1132.71" y="79.5" ></text>
</g>
<g >
<title>blk_done_softirq (10,101,010 samples, 0.08%)</title><rect x="1048.2" y="149" width="0.8" height="15.0" fill="rgb(225,93,22)" rx="2" ry="2" />
<text  x="1051.15" y="159.5" ></text>
</g>
<g >
<title>_raw_spin_unlock_irqrestore (20,202,020 samples, 0.15%)</title><rect x="10.0" y="85" width="1.8" height="15.0" fill="rgb(228,106,25)" rx="2" ry="2" />
<text  x="13.00" y="95.5" ></text>
</g>
<g >
<title>benchmark::internal::(anonymous namespace)::RunInThread (13,313,131,180 samples, 99.02%)</title><rect x="18.0" y="293" width="1168.5" height="15.0" fill="rgb(208,15,3)" rx="2" ry="2" />
<text  x="20.98" y="303.5" >benchmark::internal::(anonymous namespace)::RunInThread</text>
</g>
<g >
<title>[[vdso]] (141,414,140 samples, 1.05%)</title><rect x="18.0" y="261" width="12.4" height="15.0" fill="rgb(218,60,14)" rx="2" ry="2" />
<text  x="20.98" y="271.5" ></text>
</g>
<g >
<title>void std::__cxx11::basic_string&lt;char, std::char_traits&lt;char&gt;, std::allocator&lt;char&gt; &gt;::_M_construct&lt;char*&gt; (50,505,050 samples, 0.38%)</title><rect x="1179.4" y="229" width="4.4" height="15.0" fill="rgb(220,70,16)" rx="2" ry="2" />
<text  x="1182.36" y="239.5" ></text>
</g>
<g >
<title>send_to_group (20,202,020 samples, 0.15%)</title><rect x="10.0" y="165" width="1.8" height="15.0" fill="rgb(219,67,16)" rx="2" ry="2" />
<text  x="13.00" y="175.5" ></text>
</g>
<g >
<title>OwnHashMap&lt;int, std::__cxx11::basic_string&lt;char, std::char_traits&lt;char&gt;, std::allocator&lt;char&gt; &gt;, BadHash&gt;::find (4,636,363,590 samples, 34.49%)</title><rect x="645.7" y="245" width="406.9" height="15.0" fill="rgb(228,109,26)" rx="2" ry="2" />
<text  x="648.66" y="255.5" >OwnHashMap&lt;int, std::__cxx11::basic_string&lt;char, std::c..</text>
</g>
<g >
<title>handle_softirqs (10,101,010 samples, 0.08%)</title><rect x="1178.5" y="165" width="0.9" height="15.0" fill="rgb(238,156,37)" rx="2" ry="2" />
<text  x="1181.47" y="175.5" ></text>
</g>
<g >
<title>handle_softirqs (10,101,010 samples, 0.08%)</title><rect x="1118.2" y="165" width="0.9" height="15.0" fill="rgb(238,156,37)" rx="2" ry="2" />
<text  x="1121.19" y="175.5" ></text>
</g>
<g >
<title>blk_complete_reqs (10,101,010 samples, 0.08%)</title><rect x="1048.2" y="133" width="0.8" height="15.0" fill="rgb(216,52,12)" rx="2" ry="2" />
<text  x="1051.15" y="143.5" ></text>
</g>
<g >
<title>free_pgd_range (10,101,010 samples, 0.08%)</title><rect x="12.7" y="181" width="0.8" height="15.0" fill="rgb(209,21,5)" rx="2" ry="2" />
<text  x="15.66" y="191.5" ></text>
</g>
<g >
<title>OwnHashMap&lt;int, std::__cxx11::basic_string&lt;char, std::char_traits&lt;char&gt;, std::allocator&lt;char&gt; &gt;, GoodHash&gt;::insert (10,101,010 samples, 0.08%)</title><rect x="1129.7" y="245" width="0.9" height="15.0" fill="rgb(212,35,8)" rx="2" ry="2" />
<text  x="1132.71" y="255.5" ></text>
</g>
<g >
<title>[[vdso]] (6,444,444,380 samples, 47.93%)</title><rect x="44.6" y="245" width="565.6" height="15.0" fill="rgb(218,60,14)" rx="2" ry="2" />
<text  x="47.58" y="255.5" >[[vdso]]</text>
</g>
<g >
<title>__filemap_add_folio (10,101,010 samples, 0.08%)</title><rect x="11.8" y="85" width="0.9" height="15.0" fill="rgb(229,113,27)" rx="2" ry="2" />
<text  x="14.77" y="95.5" ></text>
</g>
<g >
<title>asm_common_interrupt (10,101,010 samples, 0.08%)</title><rect x="643.9" y="245" width="0.9" height="15.0" fill="rgb(227,105,25)" rx="2" ry="2" />
<text  x="646.88" y="255.5" ></text>
</g>
<g >
<title>OwnHashMap&lt;int, std::__cxx11::basic_string&lt;char, std::char_traits&lt;char&gt;, std::allocator&lt;char&gt; &gt;, MediumHash&gt;::insert (10,101,010 samples, 0.08%)</title><rect x="1183.8" y="245" width="0.9" height="15.0" fill="rgb(217,57,13)" rx="2" ry="2" />
<text  x="1186.79" y="255.5" ></text>
</g>
<g >
<title>exc_page_fault (10,101,010 samples, 0.08%)</title><rect x="1129.7" y="197" width="0.9" height="15.0" fill="rgb(212,35,8)" rx="2" ry="2" />
<text  x="1132.71" y="207.5" ></text>
</g>
<g >
<title>void BM_Find&lt;OwnHashMap, BadHash&gt; (5,191,919,140 samples, 38.62%)</title><rect x="644.8" y="261" width="455.7" height="15.0" fill="rgb(250,210,50)" rx="2" ry="2" />
<text  x="647.77" y="271.5" >void BM_Find&lt;OwnHashMap, BadHash&gt;</text>
</g>
<g >
<title>__vfprintf_internal (50,505,050 samples, 0.38%)</title><rect x="13.5" y="309" width="4.5" height="15.0" fill="rgb(232,125,30)" rx="2" ry="2" />
<text  x="16.55" y="319.5" ></text>
</g>
<g >
<title>handle_pte_fault (10,101,010 samples, 0.08%)</title><rect x="1129.7" y="133" width="0.9" height="15.0" fill="rgb(217,57,13)" rx="2" ry="2" />
<text  x="1132.71" y="143.5" ></text>
</g>
<g >
<title>alloc_anon_folio (10,101,010 samples, 0.08%)</title><rect x="1129.7" y="101" width="0.9" height="15.0" fill="rgb(223,86,20)" rx="2" ry="2" />
<text  x="1132.71" y="111.5" ></text>
</g>
<g >
<title>__memcpy_ssse3 (90,909,090 samples, 0.68%)</title><rect x="1170.5" y="229" width="8.0" height="15.0" fill="rgb(206,7,1)" rx="2" ry="2" />
<text  x="1173.50" y="239.5" ></text>
</g>
<g >
<title>virtual thunk to std::basic_ofstream&lt;char, std::char_traits&lt;char&gt; &gt;::~basic_ofstream (30,303,030 samples, 0.23%)</title><rect x="1186.5" y="309" width="2.6" height="15.0" fill="rgb(215,50,12)" rx="2" ry="2" />
<text  x="1189.45" y="319.5" ></text>
</g>
<g >
<title>generic_perform_write (10,101,010 samples, 0.08%)</title><rect x="11.8" y="149" width="0.9" height="15.0" fill="rgb(236,146,35)" rx="2" ry="2" />
<text  x="14.77" y="159.5" ></text>
</g>
<g >
<title>irq_exit_rcu (40,404,040 samples, 0.30%)</title><rect x="606.6" y="197" width="3.6" height="15.0" fill="rgb(254,227,54)" rx="2" ry="2" />
<text  x="609.65" y="207.5" ></text>
</g>
<g >
<title>benchmark::internal::BenchmarkInstance::Run (13,313,131,180 samples, 99.02%)</title><rect x="18.0" y="277" width="1168.5" height="15.0" fill="rgb(228,110,26)" rx="2" ry="2" />
<text  x="20.98" y="287.5" >benchmark::internal::BenchmarkInstance::Run</text>
</g>
<g >
<title>std::ostream&amp; std::ostream::_M_insert&lt;double&gt; (10,101,010 samples, 0.08%)</title><rect x="1130.6" y="245" width="0.9" height="15.0" fill="rgb(244,180,43)" rx="2" ry="2" />
<text  x="1133.60" y="255.5" ></text>
</g>
<g >
<title>__x64_sys_writev (30,303,030 samples, 0.23%)</title><rect x="10.0" y="245" width="2.7" height="15.0" fill="rgb(233,133,31)" rx="2" ry="2" />
<text  x="13.00" y="255.5" ></text>
</g>
<g >
<title>filemap_add_folio (10,101,010 samples, 0.08%)</title><rect x="11.8" y="101" width="0.9" height="15.0" fill="rgb(207,9,2)" rx="2" ry="2" />
<text  x="14.77" y="111.5" ></text>
</g>
<g >
<title>__irq_exit_rcu (10,101,010 samples, 0.08%)</title><rect x="1049.0" y="181" width="0.9" height="15.0" fill="rgb(227,101,24)" rx="2" ry="2" />
<text  x="1052.04" y="191.5" ></text>
</g>
<g >
<title>asm_sysvec_apic_timer_interrupt (10,101,010 samples, 0.08%)</title><rect x="1118.2" y="229" width="0.9" height="15.0" fill="rgb(232,127,30)" rx="2" ry="2" />
<text  x="1121.19" y="239.5" ></text>
</g>
<g >
<title>std::ostream&amp; std::ostream::_M_insert&lt;double&gt; (30,303,030 samples, 0.23%)</title><rect x="1186.5" y="277" width="2.6" height="15.0" fill="rgb(244,180,43)" rx="2" ry="2" />
<text  x="1189.45" y="287.5" ></text>
</g>
<g >
<title>__irq_exit_rcu (40,404,040 samples, 0.30%)</title><rect x="606.6" y="181" width="3.6" height="15.0" fill="rgb(227,101,24)" rx="2" ry="2" />
<text  x="609.65" y="191.5" ></text>
</g>
<g >
<title>asm_sysvec_apic_timer_interrupt (10,101,010 samples, 0.08%)</title><rect x="1049.0" y="229" width="0.9" height="15.0" fill="rgb(232,127,30)" rx="2" ry="2" />
<text  x="1052.04" y="239.5" ></text>
</g>
<g >
<title>std::__cxx11::basic_string&lt;char, std::char_traits&lt;char&gt;, std::allocator&lt;char&gt; &gt;::_M_replace (10,101,010 samples, 0.08%)</title><rect x="1189.1" y="325" width="0.9" height="15.0" fill="rgb(226,98,23)" rx="2" ry="2" />
<text  x="1192.11" y="335.5" ></text>
</g>
<g >
<title>[unknown] (30,303,030 samples, 0.23%)</title><rect x="1186.5" y="293" width="2.6" height="15.0" fill="rgb(210,24,5)" rx="2" ry="2" />
<text  x="1189.45" y="303.5" ></text>
</g>
<g >
<title>unmap_region (10,101,010 samples, 0.08%)</title><rect x="12.7" y="197" width="0.8" height="15.0" fill="rgb(219,64,15)" rx="2" ry="2" />
<text  x="15.66" y="207.5" ></text>
</g>
<g >
<title>do_vmi_align_munmap (10,101,010 samples, 0.08%)</title><rect x="12.7" y="213" width="0.8" height="15.0" fill="rgb(211,29,7)" rx="2" ry="2" />
<text  x="15.66" y="223.5" ></text>
</g>
<g >
<title>do_user_addr_fault (10,101,010 samples, 0.08%)</title><rect x="1129.7" y="181" width="0.9" height="15.0" fill="rgb(228,108,25)" rx="2" ry="2" />
<text  x="1132.71" y="191.5" ></text>
</g>
<g >
<title>x64_sys_call (10,101,010 samples, 0.08%)</title><rect x="12.7" y="261" width="0.8" height="15.0" fill="rgb(247,194,46)" rx="2" ry="2" />
<text  x="15.66" y="271.5" ></text>
</g>
<g >
<title>void BM_Find&lt;OwnHashMap, GoodHash&gt; (353,535,350 samples, 2.63%)</title><rect x="1100.5" y="261" width="31.0" height="15.0" fill="rgb(210,27,6)" rx="2" ry="2" />
<text  x="1103.46" y="271.5" >vo..</text>
</g>
<g >
<title>std::ostreambuf_iterator&lt;char, std::char_traits&lt;char&gt; &gt; std::num_put&lt;char, std::ostreambuf_iterator&lt;char, std::char_traits&lt;char&gt; &gt; &gt;::_M_insert_float&lt;double&gt; (10,101,010 samples, 0.08%)</title><rect x="1188.2" y="261" width="0.9" height="15.0" fill="rgb(238,154,36)" rx="2" ry="2" />
<text  x="1191.23" y="271.5" ></text>
</g>
<g >
<title>__fsnotify_parent (20,202,020 samples, 0.15%)</title><rect x="10.0" y="197" width="1.8" height="15.0" fill="rgb(225,96,23)" rx="2" ry="2" />
<text  x="13.00" y="207.5" ></text>
</g>
<g >
<title>void BM_Find&lt;OwnHashMap, MediumHash&gt; (616,161,610 samples, 4.58%)</title><rect x="1131.5" y="261" width="54.1" height="15.0" fill="rgb(215,48,11)" rx="2" ry="2" />
<text  x="1134.49" y="271.5" >void ..</text>
</g>
<g >
<title>__irq_exit_rcu (10,101,010 samples, 0.08%)</title><rect x="1118.2" y="181" width="0.9" height="15.0" fill="rgb(227,101,24)" rx="2" ry="2" />
<text  x="1121.19" y="191.5" ></text>
</g>
<g >
<title>vma_alloc_folio (10,101,010 samples, 0.08%)</title><rect x="1129.7" y="85" width="0.9" height="15.0" fill="rgb(245,187,44)" rx="2" ry="2" />
<text  x="1132.71" y="95.5" ></text>
</g>
<g >
<title>asm_exc_page_fault (10,101,010 samples, 0.08%)</title><rect x="1099.6" y="213" width="0.9" height="15.0" fill="rgb(225,93,22)" rx="2" ry="2" />
<text  x="1102.57" y="223.5" ></text>
</g>
<g >
<title>lab1 (13,444,444,310 samples, 100.00%)</title><rect x="10.0" y="341" width="1180.0" height="15.0" fill="rgb(239,159,38)" rx="2" ry="2" />
<text  x="13.00" y="351.5" >lab1</text>
</g>
<g >
<title>handle_softirqs (20,202,020 samples, 0.15%)</title><rect x="1047.3" y="165" width="1.7" height="15.0" fill="rgb(238,156,37)" rx="2" ry="2" />
<text  x="1050.27" y="175.5" ></text>
</g>
<g >
<title>__x64_sys_brk (10,101,010 samples, 0.08%)</title><rect x="12.7" y="245" width="0.8" height="15.0" fill="rgb(220,72,17)" rx="2" ry="2" />
<text  x="15.66" y="255.5" ></text>
</g>
<g >
<title>__GI___printf_fp_l (30,303,030 samples, 0.23%)</title><rect x="14.4" y="293" width="2.7" height="15.0" fill="rgb(250,208,49)" rx="2" ry="2" />
<text  x="17.43" y="303.5" ></text>
</g>
<g >
<title>OwnHashMap&lt;int, std::__cxx11::basic_string&lt;char, std::char_traits&lt;char&gt;, std::allocator&lt;char&gt; &gt;, GoodHash&gt;::find (242,424,240 samples, 1.80%)</title><rect x="1108.4" y="245" width="21.3" height="15.0" fill="rgb(238,156,37)" rx="2" ry="2" />
<text  x="1111.44" y="255.5" >O..</text>
</g>
<g >
<title>irq_exit_rcu (20,202,020 samples, 0.15%)</title><rect x="1047.3" y="197" width="1.7" height="15.0" fill="rgb(254,227,54)" rx="2" ry="2" />
<text  x="1050.27" y="207.5" ></text>
</g>
<g >
<title>handle_mm_fault (10,101,010 samples, 0.08%)</title><rect x="1129.7" y="165" width="0.9" height="15.0" fill="rgb(234,135,32)" rx="2" ry="2" />
<text  x="1132.71" y="175.5" ></text>
</g>
<g >
<title>asm_exc_page_fault (10,101,010 samples, 0.08%)</title><rect x="1129.7" y="213" width="0.9" height="15.0" fill="rgb(225,93,22)" rx="2" ry="2" />
<text  x="1132.71" y="223.5" ></text>
</g>
<g >
<title>do_iter_readv_writev (10,101,010 samples, 0.08%)</title><rect x="11.8" y="197" width="0.9" height="15.0" fill="rgb(221,76,18)" rx="2" ry="2" />
<text  x="14.77" y="207.5" ></text>
</g>
<g >
<title>common_interrupt (40,404,040 samples, 0.30%)</title><rect x="606.6" y="213" width="3.6" height="15.0" fill="rgb(215,46,11)" rx="2" ry="2" />
<text  x="609.65" y="223.5" ></text>
</g>
<g >
<title>void std::__cxx11::basic_string&lt;char, std::char_traits&lt;char&gt;, std::allocator&lt;char&gt; &gt;::_M_construct&lt;char*&gt; (121,212,120 samples, 0.90%)</title><rect x="1119.1" y="229" width="10.6" height="15.0" fill="rgb(220,70,16)" rx="2" ry="2" />
<text  x="1122.08" y="239.5" ></text>
</g>
<g >
<title>ext4_buffered_write_iter (10,101,010 samples, 0.08%)</title><rect x="11.8" y="165" width="0.9" height="15.0" fill="rgb(213,40,9)" rx="2" ry="2" />
<text  x="14.77" y="175.5" ></text>
</g>
<g >
<title>__memcpy_ssse3 (30,303,030 samples, 0.23%)</title><rect x="1115.5" y="229" width="2.7" height="15.0" fill="rgb(206,7,1)" rx="2" ry="2" />
<text  x="1118.53" y="239.5" ></text>
</g>
<g >
<title>OwnHashMap&lt;int, std::__cxx11::basic_string&lt;char, std::char_traits&lt;char&gt;, std::allocator&lt;char&gt; &gt;, BadHash&gt;::rehash (10,101,010 samples, 0.08%)</title><rect x="1099.6" y="229" width="0.9" height="15.0" fill="rgb(220,71,17)" rx="2" ry="2" />
<text  x="1102.57" y="239.5" ></text>
</g>
</g>
</svg>
